<svg width="110" height="36" viewBox="0 0 110 36" fill="none" xmlns="http://www.w3.org/2000/svg">
<g clip-path="url(#clip0)">
<path d="M27.9464 0.46582L16.6382 24.0217H8.20149L3.14038 0.46582H10.199L13.3097 17.4729L20.9214 0.46582H27.9464Z" fill="white"/>
<path d="M35.7097 5.71161L35.1976 9.55406H42.7575L42.094 14.5326H34.5342L33.9687 18.776H42.5365L41.8375 24.0217H26.6841L29.8232 0.46582H44.9766L44.2775 5.71161H35.7097Z" fill="white"/>
<path d="M52.1833 19.0098H59.541L58.8731 24.0217H44.9305L48.0693 0.46582H54.6543L52.1833 19.0098Z" fill="white"/>
<path d="M71.3019 24.2555C69.0836 24.2555 67.1045 23.7209 65.394 22.6851C63.679 21.6827 62.3961 20.2126 61.5655 18.3749C60.7013 16.5372 60.4397 14.4656 60.747 12.1601C61.0543 9.85464 61.8727 7.74965 63.2269 5.91195C64.5475 4.07425 66.2134 2.67092 68.2002 1.63513C70.1869 0.599335 72.304 0.0981445 74.5223 0.0981445C76.7743 0.0981445 78.7578 0.599335 80.4683 1.63513C82.1453 2.67092 83.4371 4.07425 84.2677 5.91195C85.0983 7.74965 85.3554 9.85464 85.0481 12.1601C84.7408 14.4656 83.9268 16.5372 82.6063 18.3749C81.2857 20.2126 79.6108 21.6827 77.6286 22.6851C75.6418 23.7209 73.5203 24.2555 71.3019 24.2555ZM72.1126 18.1744C73.7932 18.1744 75.2089 17.6398 76.3306 16.5372C77.4523 15.4346 78.1144 13.9978 78.3594 12.1601C78.6089 10.289 78.3343 8.81885 77.5065 7.71623C76.6743 6.64703 75.4011 6.11242 73.7206 6.11242C72.0064 6.11242 70.6243 6.64703 69.507 7.71623C68.3853 8.81885 67.7187 10.289 67.4693 12.1601C67.2243 13.9978 67.4989 15.468 68.3311 16.5372C69.1588 17.6398 70.3984 18.1744 72.1126 18.1744Z" fill="white"/>
<path d="M99.0602 24.0217L95.9638 18.5087L83.0277 35.8832H74.3232L92.3085 11.893L85.9002 0.46582H93.6637L96.7265 5.97891L100.856 0.46582H109.459L100.391 12.5278L106.824 24.0217H99.0602Z" fill="#FF7701"/>
</g>
<defs>
<clipPath id="clip0">
<rect width="109.964" height="36" fill="white"/>
</clipPath>
</defs>
</svg>
